<svg width="20" height="20" viewBox="0 0 20 20" fill="none" xmlns="http://www.w3.org/2000/svg">
<g id="mingcute:female-fill" clip-path="url(#clip0_790_15)">
<g id="Group">
<path id="Vector" d="M5.83334 7.9167C5.83352 6.5062 6.3108 5.13723 7.1876 4.03236C8.06439 2.92749 9.28914 2.15169 10.6627 1.83108C12.0363 1.51047 13.4779 1.66392 14.7533 2.26647C16.0286 2.86901 17.0626 3.88523 17.6872 5.1499C18.3118 6.41458 18.4902 7.85334 18.1935 9.23227C17.8968 10.6112 17.1423 11.8492 16.0528 12.7451C14.9633 13.6409 13.6029 14.1419 12.1926 14.1665C10.7823 14.1912 9.40514 13.7381 8.28501 12.8809L6.79501 14.37L7.98334 15.5584C8.06293 15.6352 8.12642 15.7272 8.17009 15.8289C8.21376 15.9305 8.23675 16.0399 8.23771 16.1505C8.23868 16.2612 8.21759 16.3709 8.17569 16.4733C8.13379 16.5757 8.07191 16.6688 7.99367 16.747C7.91542 16.8253 7.82238 16.8872 7.71997 16.9291C7.61755 16.971 7.50782 16.992 7.39717 16.9911C7.28652 16.9901 7.17717 16.9671 7.0755 16.9235C6.97383 16.8798 6.88188 16.8163 6.80501 16.7367L5.61667 15.5492L3.85001 17.3159C3.69364 17.4721 3.4816 17.5599 3.26055 17.5598C3.03949 17.5597 2.82751 17.4718 2.67126 17.3155C2.515 17.1591 2.42726 16.947 2.42734 16.726C2.42742 16.5049 2.51531 16.293 2.67167 16.1367L4.43834 14.37L3.26917 13.2009C3.18958 13.124 3.1261 13.032 3.08242 12.9304C3.03875 12.8287 3.01576 12.7194 3.0148 12.6087C3.01384 12.4981 3.03492 12.3883 3.07682 12.2859C3.11872 12.1835 3.1806 12.0904 3.25884 12.0122C3.33709 11.934 3.43013 11.8721 3.53254 11.8302C3.63496 11.7883 3.74469 11.7672 3.85534 11.7682C3.96599 11.7691 4.07534 11.7921 4.17701 11.8358C4.27868 11.8795 4.37063 11.9429 4.44751 12.0225L5.61667 13.1917L7.10834 11.7C6.27933 10.6132 5.83125 9.28362 5.83334 7.9167Z" fill="#DDF638"/>
</g>
</g>
<defs>
<clipPath id="clip0_790_15">
<rect width="20" height="20" fill="white"/>
</clipPath>
</defs>
</svg>
