<svg width="22" height="22" viewBox="0 0 22 22" fill="none" xmlns="http://www.w3.org/2000/svg">
<g id="mingcute:male-fill" clip-path="url(#clip0_790_4)">
<g id="Group">
<path id="Vector" d="M19.25 8.25C19.25 8.49312 19.1534 8.72627 18.9815 8.89818C18.8096 9.07009 18.5764 9.16667 18.3333 9.16667C18.0902 9.16667 17.8571 9.07009 17.6851 8.89818C17.5132 8.72627 17.4167 8.49312 17.4167 8.25V5.8795L14.1744 9.12175C15.2321 10.5082 15.7234 12.2448 15.5488 13.9799C15.3742 15.715 14.5468 17.3189 13.2341 18.4669C11.9214 19.6149 10.2215 20.2211 8.47859 20.1628C6.73571 20.1045 5.0801 19.3861 3.847 18.153C2.61391 16.9199 1.89549 15.2643 1.8372 13.5214C1.77892 11.7785 2.38514 10.0786 3.5331 8.7659C4.68106 7.45319 6.28497 6.62576 8.02007 6.45117C9.75516 6.27659 11.4918 6.76788 12.8782 7.82558L16.1205 4.58333H13.75C13.5069 4.58333 13.2737 4.48676 13.1018 4.31485C12.9299 4.14294 12.8333 3.90978 12.8333 3.66667C12.8333 3.42355 12.9299 3.19039 13.1018 3.01849C13.2737 2.84658 13.5069 2.75 13.75 2.75H18.1042C18.7367 2.75 19.25 3.26333 19.25 3.89583V8.25Z" fill="#DDF638"/>
</g>
</g>
<defs>
<clipPath id="clip0_790_4">
<rect width="22" height="22" fill="white"/>
</clipPath>
</defs>
</svg>
