<svg width="24" height="24" viewBox="0 0 24 24" fill="none" xmlns="http://www.w3.org/2000/svg">
<g id="material-symbols:clear-night">
<path id="Vector" d="M13.1 23C11.7 23 10.3877 22.7333 9.163 22.2C7.93833 21.6667 6.87167 20.9457 5.963 20.037C5.05433 19.129 4.33333 18.0623 3.8 16.837C3.26667 15.6117 3 14.2993 3 12.9C3 10.4667 3.775 8.32067 5.325 6.462C6.875 4.60333 8.85 3.44933 11.25 3C10.95 4.65 11.0417 6.26267 11.525 7.838C12.0083 9.41333 12.8417 10.7923 14.025 11.975C15.2083 13.1583 16.5877 13.9917 18.163 14.475C19.7383 14.9583 21.3507 15.05 23 14.75C22.5667 17.15 21.4167 19.125 19.55 20.675C17.6833 22.225 15.5333 23 13.1 23Z" fill="#DDF638"/>
</g>
</svg>
