<svg width="19" height="19" viewBox="0 0 19 19" fill="none" xmlns="http://www.w3.org/2000/svg">
<g id="ph:gender-nonbinary-fill">
<path id="Vector" d="M14.8438 1.78125H4.15625C3.84131 1.78125 3.53926 1.90636 3.31656 2.12906C3.09386 2.35176 2.96875 2.65381 2.96875 2.96875V16.0312C2.96875 16.3462 3.09386 16.6482 3.31656 16.8709C3.53926 17.0936 3.84131 17.2188 4.15625 17.2188H14.8438C15.1587 17.2188 15.4607 17.0936 15.6834 16.8709C15.9061 16.6482 16.0312 16.3462 16.0312 16.0312V2.96875C16.0312 2.65381 15.9061 2.35176 15.6834 2.12906C15.4607 1.90636 15.1587 1.78125 14.8438 1.78125ZM9.5 15.4375C8.52805 15.4374 7.59193 15.0706 6.87868 14.4103C6.16543 13.75 5.72756 12.8449 5.65257 11.8759C5.57758 10.9068 5.87099 9.94517 6.47417 9.18304C7.07735 8.4209 7.94589 7.91441 8.90625 7.76477V6.22102L6.75391 7.0827C6.60765 7.14175 6.44393 7.14028 6.29876 7.07862C6.15359 7.01696 6.03886 6.90016 5.9798 6.75391C5.92075 6.60765 5.92222 6.44393 5.98388 6.29876C6.04554 6.15359 6.16234 6.03886 6.30859 5.9798L7.90133 5.34375L6.30859 4.7077C6.16234 4.64864 6.04554 4.53391 5.98388 4.38874C5.92222 4.24357 5.92075 4.07985 5.9798 3.93359C6.03886 3.78734 6.15359 3.67054 6.29876 3.60888C6.44393 3.54722 6.60765 3.54575 6.75391 3.6048L9.5 4.70398L12.2461 3.6048C12.3185 3.57556 12.396 3.56088 12.4741 3.56157C12.5522 3.56227 12.6294 3.57835 12.7012 3.60888C12.7731 3.63941 12.8383 3.6838 12.893 3.73951C12.9477 3.79523 12.991 3.86118 13.0202 3.93359C13.0494 4.00601 13.0641 4.08348 13.0634 4.16157C13.0627 4.23967 13.0467 4.31686 13.0161 4.38874C12.9856 4.46062 12.9412 4.52579 12.8855 4.58051C12.8298 4.63524 12.7638 4.67846 12.6914 4.7077L11.0987 5.34375L12.6914 5.9798C12.8377 6.03886 12.9545 6.15359 13.0161 6.29876C13.0778 6.44393 13.0792 6.60765 13.0202 6.75391C12.9611 6.90016 12.8464 7.01696 12.7012 7.07862C12.5561 7.14028 12.3923 7.14175 12.2461 7.0827L10.0938 6.22102V7.76477C11.0541 7.91441 11.9226 8.4209 12.5258 9.18304C13.129 9.94517 13.4224 10.9068 13.3474 11.8759C13.2724 12.8449 12.8346 13.75 12.1213 14.4103C11.4081 15.0706 10.4719 15.4374 9.5 15.4375ZM12.1719 11.5781C12.1719 12.1066 12.0152 12.6232 11.7216 13.0625C11.428 13.5019 11.0107 13.8444 10.5225 14.0466C10.0343 14.2488 9.49704 14.3018 8.97874 14.1987C8.46045 14.0956 7.98437 13.8411 7.6107 13.4674C7.23703 13.0938 6.98256 12.6177 6.87946 12.0994C6.77637 11.5811 6.82928 11.0439 7.03151 10.5556C7.23374 10.0674 7.5762 9.65013 8.01559 9.35654C8.45497 9.06295 8.97155 8.90625 9.5 8.90625C10.2086 8.90625 10.8882 9.18775 11.3893 9.68882C11.8904 10.1899 12.1719 10.8695 12.1719 11.5781Z" fill="#DDF638"/>
</g>
</svg>
