<svg width="25" height="25" viewBox="0 0 25 25" fill="none" xmlns="http://www.w3.org/2000/svg">
<g id="ant-design:setting-filled">
<path id="Vector" d="M12.4878 9.53613C13.2177 9.53613 13.9013 9.81934 14.4189 10.3369C14.9341 10.8545 15.2197 11.5381 15.2197 12.2681C15.2197 12.998 14.9341 13.6816 14.4189 14.1992C13.9013 14.7144 13.2177 15 12.4878 15C11.7578 15 11.0742 14.7144 10.5566 14.1992C10.0415 13.6816 9.75583 12.998 9.75583 12.2681C9.75583 11.5381 10.0415 10.8545 10.5566 10.3369C10.8094 10.0822 11.1103 9.8802 11.4418 9.74273C11.7733 9.60526 12.1289 9.53504 12.4878 9.53613ZM2.42185 15.2856L4.01853 13.9209C3.94284 13.457 3.90378 12.9834 3.90378 12.5122C3.90378 12.041 3.94284 11.5649 4.01853 11.1035L2.42185 9.73877C2.30123 9.63551 2.2149 9.49799 2.17435 9.34448C2.13379 9.19097 2.14092 9.02875 2.1948 8.8794L2.21677 8.81592C2.65619 7.58714 3.31461 6.44813 4.16013 5.4541L4.20407 5.40283C4.30675 5.28211 4.44358 5.19533 4.59656 5.15392C4.74953 5.11252 4.91146 5.11844 5.06101 5.1709L7.04343 5.87646C7.77585 5.27588 8.59128 4.80225 9.47507 4.47266L9.85837 2.3999C9.88729 2.24376 9.96303 2.1001 10.0755 1.98803C10.1881 1.87596 10.332 1.80077 10.4883 1.77246L10.5542 1.76025C11.8237 1.53076 13.1616 1.53076 14.4311 1.76025L14.497 1.77246C14.6533 1.80077 14.7972 1.87596 14.9098 1.98803C15.0223 2.1001 15.098 2.24376 15.1269 2.3999L15.5127 4.48242C16.3881 4.81464 17.2036 5.28712 17.9272 5.88135L19.9243 5.1709C20.0738 5.11802 20.2358 5.11189 20.3889 5.15332C20.542 5.19475 20.6788 5.28177 20.7812 5.40283L20.8252 5.4541C21.6692 6.44919 22.3274 7.58791 22.7685 8.81592L22.7905 8.8794C22.9004 9.18457 22.81 9.52637 22.5634 9.73877L20.9472 11.1182C21.0229 11.5771 21.0595 12.0459 21.0595 12.5098C21.0595 12.9785 21.0229 13.4473 20.9472 13.9014L22.5586 15.2808C22.6792 15.384 22.7655 15.5215 22.8061 15.6751C22.8466 15.8286 22.8395 15.9908 22.7856 16.1401L22.7636 16.2036C22.3218 17.4316 21.6699 18.5669 20.8203 19.5654L20.7763 19.6167C20.6737 19.7374 20.5368 19.8242 20.3839 19.8656C20.2309 19.907 20.069 19.9011 19.9194 19.8486L17.9223 19.1382C17.1948 19.7363 16.3843 20.21 15.5078 20.5371L15.122 22.6196C15.0931 22.7758 15.0174 22.9194 14.9049 23.0315C14.7924 23.1436 14.6484 23.2188 14.4922 23.2471L14.4262 23.2593C13.1442 23.49 11.8313 23.49 10.5493 23.2593L10.4834 23.2471C10.3271 23.2188 10.1832 23.1436 10.0707 23.0315C9.95815 22.9194 9.88241 22.7758 9.85349 22.6196L9.47019 20.5469C8.5864 20.2148 7.77097 19.7437 7.03855 19.1431L5.05612 19.8486C4.90663 19.9015 4.74458 19.9076 4.59151 19.8662C4.43845 19.8248 4.30161 19.7378 4.19919 19.6167L4.15524 19.5654C3.30564 18.562 2.65378 17.4316 2.21189 16.2036L2.18991 16.1401C2.08493 15.8374 2.17526 15.498 2.42185 15.2856ZM12.4878 16.5601C14.8584 16.5601 16.7798 14.6387 16.7798 12.2681C16.7798 9.89746 14.8584 7.97607 12.4878 7.97607C10.1172 7.97607 8.19577 9.89746 8.19577 12.2681C8.19577 14.6387 10.1172 16.5601 12.4878 16.5601Z" fill="#858585"/>
</g>
</svg>
