<svg width="40" height="40" viewBox="0 0 40 40" fill="none" xmlns="http://www.w3.org/2000/svg">
<g id="material-symbols:sports-tennis">
<path id="Vector" d="M5.70834 33.3335L3.33334 31.0002L10.1667 24.1668C11.0278 23.3057 11.6183 22.229 11.9383 20.9368C12.2583 19.6446 12.4178 17.6657 12.4167 15.0002C12.4167 13.389 12.7778 11.8057 13.5 10.2502C14.2222 8.6946 15.25 7.25015 16.5833 5.91682C19.1111 3.38904 21.9028 1.95849 24.9583 1.62515C28.0139 1.29182 30.5278 2.13904 32.5 4.16682C34.5 6.16682 35.3333 8.6946 35 11.7502C34.6667 14.8057 33.25 17.5835 30.75 20.0835C29.4167 21.4168 27.9722 22.4446 26.4167 23.1668C24.8611 23.889 23.2778 24.2502 21.6667 24.2502C18.9722 24.2502 17 24.4029 15.75 24.7085C14.5 25.014 13.4306 25.6113 12.5417 26.5002L5.70834 33.3335ZM17.1667 19.4168C18.4722 20.6946 20.2361 21.1668 22.4583 20.8335C24.6806 20.5002 26.6667 19.4585 28.4167 17.7085C30.1945 15.9307 31.2572 13.9374 31.605 11.7285C31.9528 9.5196 31.4733 7.79071 30.1667 6.54182C28.8333 5.20849 27.09 4.70849 24.9367 5.04182C22.7833 5.37515 20.8045 6.43071 19 8.20849C17.25 9.95849 16.1872 11.9379 15.8117 14.1468C15.4361 16.3557 15.8878 18.1124 17.1667 19.4168ZM30 38.3335C28.1667 38.3335 26.5972 37.6807 25.2917 36.3752C23.9861 35.0696 23.3333 33.5002 23.3333 31.6668C23.3333 29.8335 23.9861 28.264 25.2917 26.9585C26.5972 25.6529 28.1667 25.0002 30 25.0002C31.8333 25.0002 33.4028 25.6529 34.7083 26.9585C36.0139 28.264 36.6667 29.8335 36.6667 31.6668C36.6667 33.5002 36.0139 35.0696 34.7083 36.3752C33.4028 37.6807 31.8333 38.3335 30 38.3335Z" fill="url(#paint0_linear_926_4215)"/>
</g>
<defs>
<linearGradient id="paint0_linear_926_4215" x1="16" y1="1.99988" x2="35.5" y2="40.9999" gradientUnits="userSpaceOnUse">
<stop stop-color="#CCE818"/>
<stop offset="0.40133" stop-color="#E4F387"/>
<stop offset="1" stop-color="white"/>
</linearGradient>
</defs>
</svg>
