<svg width="12" height="13" viewBox="0 0 12 13" fill="none" xmlns="http://www.w3.org/2000/svg">
<g id="ph:star-fill">
<path id="Vector" d="M10.9922 6.1393L8.87813 7.9843L9.51141 10.7312C9.54492 10.8748 9.53536 11.0251 9.48392 11.1633C9.43248 11.3015 9.34144 11.4214 9.22219 11.5082C9.10294 11.5949 8.96077 11.6445 8.81345 11.6509C8.66613 11.6573 8.52021 11.6201 8.39391 11.544L5.99813 10.0909L3.6075 11.544C3.48121 11.6201 3.33528 11.6573 3.18796 11.6509C3.04064 11.6445 2.89847 11.5949 2.77922 11.5082C2.65997 11.4214 2.56894 11.3015 2.5175 11.1633C2.46606 11.0251 2.45649 10.8748 2.49 10.7312L3.12235 7.98711L1.00782 6.1393C0.895977 6.04284 0.815105 5.91551 0.775343 5.77328C0.735581 5.63104 0.738698 5.48023 0.784304 5.33976C0.829909 5.19929 0.915974 5.07541 1.0317 4.98365C1.14743 4.8919 1.28768 4.83636 1.43485 4.82399L4.22204 4.58258L5.31 1.98758C5.36682 1.85142 5.46265 1.73511 5.58544 1.6533C5.70822 1.57149 5.85246 1.52783 6 1.52783C6.14755 1.52783 6.29179 1.57149 6.41457 1.6533C6.53736 1.73511 6.63319 1.85142 6.69 1.98758L7.78125 4.58258L10.5675 4.82399C10.7147 4.83636 10.8549 4.8919 10.9706 4.98365C11.0864 5.07541 11.1724 5.19929 11.218 5.33976C11.2637 5.48023 11.2668 5.63104 11.227 5.77328C11.1872 5.91551 11.1064 6.04284 10.9945 6.1393H10.9922Z" fill="black"/>
</g>
</svg>
