<svg width="12" height="12" viewBox="0 0 12 12" fill="none" xmlns="http://www.w3.org/2000/svg">
<g id="sports_tennis_FILL1_wght600_GRAD0_opsz48" clip-path="url(#clip0_958_9392)">
<path id="Vector" d="M1.50924 10.1256L0.865753 9.47503L3.04075 7.30003C3.31575 7.02032 3.51512 6.67304 3.63885 6.25818C3.76259 5.84333 3.82445 5.29569 3.82445 4.61525C3.82445 4.10257 3.93215 3.60411 4.14755 3.11986C4.36295 2.63562 4.68786 2.181 5.12228 1.756C5.86504 1.00854 6.68569 0.584801 7.58424 0.484801C8.48279 0.384801 9.22482 0.625202 9.81033 1.206C10.3864 1.78209 10.6245 2.52358 10.5245 3.43046C10.4245 4.33735 10.0031 5.16688 9.26033 5.91905C8.83062 6.34876 8.37364 6.66597 7.8894 6.87068C7.40516 7.07539 6.90434 7.17775 6.38695 7.17775C5.72065 7.17775 5.17238 7.23781 4.74213 7.35791C4.31187 7.47802 3.95924 7.67558 3.68424 7.95058L1.50924 10.1256ZM5.19783 5.806C5.58732 6.19549 6.12264 6.33698 6.8038 6.23045C7.48496 6.12394 8.09529 5.80093 8.63478 5.26144C9.16956 4.72195 9.49112 4.11905 9.59945 3.45274C9.70779 2.78644 9.56956 2.25619 9.18478 1.86199C8.8 1.47721 8.26676 1.33808 7.58505 1.4446C6.90335 1.55112 6.29511 1.87177 5.76033 2.40655C5.22084 2.94604 4.89484 3.55012 4.78234 4.21878C4.66984 4.88743 4.80834 5.41651 5.19783 5.806ZM9.29892 11.6201C8.78007 11.6201 8.3433 11.4416 7.98859 11.0845C7.63388 10.7275 7.45653 10.2919 7.45653 9.77775C7.45653 9.26362 7.63388 8.8292 7.98859 8.47449C8.3433 8.11977 8.78007 7.94241 9.29892 7.94241C9.81305 7.94241 10.2486 8.11977 10.6057 8.47449C10.9628 8.8292 11.1413 9.26362 11.1413 9.77775C11.1413 10.2919 10.9628 10.7275 10.6057 11.0845C10.2486 11.4416 9.81305 11.6201 9.29892 11.6201Z" fill="white"/>
</g>
<defs>
<clipPath id="clip0_958_9392">
<rect width="12" height="12" fill="white"/>
</clipPath>
</defs>
</svg>
