<svg width="16" height="16" viewBox="0 0 16 16" fill="none" xmlns="http://www.w3.org/2000/svg">
<g id="share_FILL1_wght600_GRAD0_opsz48">
<path id="Vector" d="M12.1161 14.8834C11.5322 14.8834 11.0335 14.676 10.6201 14.2613C10.2067 13.8465 9.99999 13.3477 9.99999 12.7648C9.99999 12.6886 10.0083 12.5937 10.025 12.4801C10.0417 12.3666 10.0667 12.2606 10.1 12.1624L5.39856 9.42687C5.21306 9.6346 4.98758 9.80151 4.72211 9.9276C4.45665 10.0537 4.18403 10.1167 3.90423 10.1167C3.31509 10.1167 2.81433 9.90984 2.40193 9.49607C1.98953 9.08229 1.78333 8.58343 1.78333 7.9995C1.78333 7.41557 1.98953 6.91689 2.40193 6.50348C2.81433 6.09007 3.31509 5.88337 3.90423 5.88337C4.18403 5.88337 4.4511 5.93808 4.70544 6.0475C4.9598 6.15692 5.19084 6.3155 5.39856 6.52323L10.1 3.82107C10.0667 3.73621 10.0417 3.63989 10.025 3.53212C10.0083 3.42434 9.99999 3.32355 9.99999 3.22975C9.99999 2.64839 10.2069 2.15088 10.6207 1.73722C11.0344 1.32354 11.5333 1.1167 12.1172 1.1167C12.7012 1.1167 13.1998 1.32359 13.6132 1.73737C14.0267 2.15114 14.2334 2.65 14.2334 3.23393C14.2334 3.81787 14.0272 4.31654 13.6148 4.72995C13.2024 5.14336 12.7016 5.35007 12.1125 5.35007C11.8287 5.35007 11.5577 5.30693 11.2992 5.22065C11.0408 5.13437 10.8225 4.98717 10.6442 4.77905L5.93336 7.36237C5.96186 7.45753 5.98287 7.56823 5.99639 7.69447C6.00992 7.8207 6.01669 7.9239 6.01669 8.00407C6.01669 8.08424 6.00992 8.17065 5.99639 8.26328C5.98287 8.35591 5.96186 8.45294 5.93336 8.5544L10.6442 11.2044C10.8225 11.0296 11.0335 10.8935 11.2772 10.7961C11.5209 10.6987 11.7993 10.65 12.1125 10.65C12.7016 10.65 13.2024 10.8569 13.6148 11.2707C14.0272 11.6845 14.2334 12.1833 14.2334 12.7673C14.2334 13.3512 14.0265 13.8499 13.6127 14.2633C13.1989 14.6767 12.7001 14.8834 12.1161 14.8834Z" fill="white"/>
</g>
</svg>
