<svg width="30" height="30" viewBox="0 0 30 30" fill="none" xmlns="http://www.w3.org/2000/svg">
<g id="mingcute:sun-fill" clip-path="url(#clip0_790_25)">
<g id="Group">
<path id="Vector" d="M15 23.75C15.3315 23.75 15.6495 23.8817 15.8839 24.1161C16.1183 24.3505 16.25 24.6685 16.25 25V26.25C16.25 26.5815 16.1183 26.8995 15.8839 27.1339C15.6495 27.3683 15.3315 27.5 15 27.5C14.6685 27.5 14.3505 27.3683 14.1161 27.1339C13.8817 26.8995 13.75 26.5815 13.75 26.25V25C13.75 24.6685 13.8817 24.3505 14.1161 24.1161C14.3505 23.8817 14.6685 23.75 15 23.75ZM22.955 21.1875L23.8388 22.0712C24.0665 22.307 24.1924 22.6228 24.1896 22.9505C24.1867 23.2782 24.0553 23.5918 23.8235 23.8235C23.5918 24.0553 23.2783 24.1867 22.9505 24.1896C22.6228 24.1924 22.307 24.0664 22.0713 23.8387L21.1875 22.955C20.9598 22.7192 20.8338 22.4035 20.8367 22.0757C20.8395 21.748 20.971 21.4345 21.2027 21.2027C21.4345 20.971 21.748 20.8395 22.0758 20.8367C22.4035 20.8338 22.7193 20.9598 22.955 21.1875ZM7.045 21.1875C7.26995 20.9633 7.5718 20.8332 7.88923 20.8235C8.20667 20.8138 8.5159 20.9253 8.7541 21.1353C8.99231 21.3454 9.14164 21.6382 9.17175 21.9543C9.20187 22.2705 9.11052 22.5863 8.91625 22.8375L8.8125 22.955L7.92875 23.8387C7.70381 24.0629 7.40196 24.1931 7.08452 24.2028C6.76709 24.2125 6.45786 24.101 6.21966 23.8909C5.98145 23.6809 5.83212 23.3881 5.80201 23.0719C5.77189 22.7558 5.86324 22.44 6.0575 22.1887L6.16125 22.0712L7.045 21.1875ZM15 7.5C16.9891 7.5 18.8968 8.29018 20.3033 9.6967C21.7098 11.1032 22.5 13.0109 22.5 15C22.5 16.9891 21.7098 18.8968 20.3033 20.3033C18.8968 21.7098 16.9891 22.5 15 22.5C13.0109 22.5 11.1032 21.7098 9.6967 20.3033C8.29018 18.8968 7.5 16.9891 7.5 15C7.5 13.0109 8.29018 11.1032 9.6967 9.6967C11.1032 8.29018 13.0109 7.5 15 7.5ZM5 13.75C5.3186 13.7504 5.62504 13.8723 5.85671 14.0911C6.08838 14.3098 6.2278 14.6087 6.24647 14.9267C6.26514 15.2448 6.16166 15.558 5.95717 15.8023C5.75268 16.0466 5.46262 16.2036 5.14625 16.2413L5 16.25H3.75C3.4314 16.2496 3.12496 16.1277 2.89329 15.9089C2.66162 15.6902 2.52221 15.3913 2.50354 15.0733C2.48487 14.7552 2.58835 14.442 2.79283 14.1977C2.99732 13.9534 3.28738 13.7964 3.60375 13.7587L3.75 13.75H5ZM26.25 13.75C26.5815 13.75 26.8995 13.8817 27.1339 14.1161C27.3683 14.3505 27.5 14.6685 27.5 15C27.5 15.3315 27.3683 15.6495 27.1339 15.8839C26.8995 16.1183 26.5815 16.25 26.25 16.25H25C24.6685 16.25 24.3505 16.1183 24.1161 15.8839C23.8817 15.6495 23.75 15.3315 23.75 15C23.75 14.6685 23.8817 14.3505 24.1161 14.1161C24.3505 13.8817 24.6685 13.75 25 13.75H26.25ZM6.16125 6.16125C6.37649 5.94603 6.66287 5.81674 6.96665 5.79764C7.27043 5.77854 7.57075 5.87094 7.81125 6.0575L7.92875 6.16125L8.8125 7.045C9.03669 7.26995 9.16685 7.57179 9.17654 7.88923C9.18623 8.20667 9.07473 8.51589 8.86469 8.7541C8.65465 8.99231 8.36181 9.14163 8.04566 9.17175C7.72951 9.20187 7.41374 9.11051 7.1625 8.91625L7.045 8.8125L6.16125 7.92875C5.92691 7.69434 5.79527 7.37646 5.79527 7.045C5.79527 6.71354 5.92691 6.39566 6.16125 6.16125ZM23.8388 6.16125C24.0731 6.39566 24.2047 6.71354 24.2047 7.045C24.2047 7.37646 24.0731 7.69434 23.8388 7.92875L22.955 8.8125C22.8397 8.93189 22.7018 9.02712 22.5493 9.09263C22.3968 9.15814 22.2327 9.19262 22.0668 9.19406C21.9008 9.19551 21.7362 9.16388 21.5826 9.10103C21.4289 9.03818 21.2894 8.94536 21.172 8.82799C21.0546 8.71063 20.9618 8.57106 20.899 8.41744C20.8361 8.26382 20.8045 8.09922 20.8059 7.93325C20.8074 7.76727 20.8419 7.60325 20.9074 7.45074C20.9729 7.29824 21.0681 7.16031 21.1875 7.045L22.0713 6.16125C22.3057 5.92691 22.6235 5.79527 22.955 5.79527C23.2865 5.79527 23.6043 5.92691 23.8388 6.16125ZM15 2.5C15.3315 2.5 15.6495 2.6317 15.8839 2.86612C16.1183 3.10054 16.25 3.41848 16.25 3.75V5C16.25 5.33152 16.1183 5.64946 15.8839 5.88388C15.6495 6.1183 15.3315 6.25 15 6.25C14.6685 6.25 14.3505 6.1183 14.1161 5.88388C13.8817 5.64946 13.75 5.33152 13.75 5V3.75C13.75 3.41848 13.8817 3.10054 14.1161 2.86612C14.3505 2.6317 14.6685 2.5 15 2.5Z" fill="#6D6D6D"/>
</g>
</g>
<defs>
<clipPath id="clip0_790_25">
<rect width="30" height="30" fill="white"/>
</clipPath>
</defs>
</svg>
