<svg width="12" height="12" viewBox="0 0 12 12" fill="none" xmlns="http://www.w3.org/2000/svg">
<g id="material-symbols:date-range">
<path id="Vector" d="M4 7C3.85833 7 3.7395 6.952 3.6435 6.856C3.5475 6.76 3.49967 6.64133 3.5 6.5C3.5 6.35833 3.548 6.2395 3.644 6.1435C3.74 6.0475 3.85867 5.99967 4 6C4.14167 6 4.2605 6.048 4.3565 6.144C4.4525 6.24 4.50033 6.35867 4.5 6.5C4.5 6.64167 4.452 6.7605 4.356 6.8565C4.26 6.9525 4.14133 7.00033 4 7ZM6 7C5.85833 7 5.7395 6.952 5.6435 6.856C5.5475 6.76 5.49967 6.64133 5.5 6.5C5.5 6.35833 5.548 6.2395 5.644 6.1435C5.74 6.0475 5.85867 5.99967 6 6C6.14167 6 6.2605 6.048 6.3565 6.144C6.4525 6.24 6.50033 6.35867 6.5 6.5C6.5 6.64167 6.452 6.7605 6.356 6.8565C6.26 6.9525 6.14133 7.00033 6 7ZM8 7C7.85833 7 7.7395 6.952 7.6435 6.856C7.5475 6.76 7.49967 6.64133 7.5 6.5C7.5 6.35833 7.548 6.2395 7.644 6.1435C7.74 6.0475 7.85867 5.99967 8 6C8.14167 6 8.2605 6.048 8.3565 6.144C8.4525 6.24 8.50033 6.35867 8.5 6.5C8.5 6.64167 8.452 6.7605 8.356 6.8565C8.26 6.9525 8.14133 7.00033 8 7ZM2.5 11C2.225 11 1.9895 10.902 1.7935 10.706C1.5975 10.51 1.49967 10.2747 1.5 10V3C1.5 2.725 1.598 2.4895 1.794 2.2935C1.99 2.0975 2.22533 1.99967 2.5 2H3V1H4V2H8V1H9V2H9.5C9.775 2 10.0105 2.098 10.2065 2.294C10.4025 2.49 10.5003 2.72533 10.5 3V10C10.5 10.275 10.402 10.5105 10.206 10.7065C10.01 10.9025 9.77467 11.0003 9.5 11H2.5ZM2.5 10H9.5V5H2.5V10Z" fill="white"/>
</g>
</svg>
