<svg width="24" height="24" viewBox="0 0 24 24" fill="none" xmlns="http://www.w3.org/2000/svg">
<g id="&#229;&#136;&#183;&#230;&#150;&#176;">
<path id="Vector" d="M4.9 15.725C4.56667 15.125 4.33333 14.5208 4.2 13.9125C4.06667 13.3041 4 12.6833 4 12.05C4 9.86662 4.7875 7.98745 6.3625 6.41245C7.9375 4.83745 9.81667 4.04995 12 4.04995H13.075L11.075 2.04995L12.05 1.07495L15.775 4.79995L12.05 8.52495L11.05 7.52495L13.025 5.54995H12C10.2167 5.54995 8.6875 6.18745 7.4125 7.46245C6.1375 8.73745 5.5 10.2666 5.5 12.05C5.5 12.5333 5.54583 12.9916 5.6375 13.425C5.72917 13.8583 5.84167 14.2666 5.975 14.65L4.9 15.725ZM11.9 23L8.175 19.275L11.9 15.55L12.875 16.525L10.875 18.525H12C13.7833 18.525 15.3125 17.8875 16.5875 16.6125C17.8625 15.3375 18.5 13.8083 18.5 12.025C18.5 11.5416 18.4583 11.0833 18.375 10.65C18.2917 10.2166 18.1667 9.80829 18 9.42495L19.075 8.34995C19.4083 8.94995 19.6458 9.55412 19.7875 10.1625C19.9292 10.7708 20 11.3916 20 12.025C20 14.2083 19.2125 16.0875 17.6375 17.6625C16.0625 19.2375 14.1833 20.025 12 20.025H10.875L12.875 22.025L11.9 23Z" fill="white"/>
</g>
</svg>
